<svg xmlns="http://www.w3.org/2000/svg" viewBox="0 0 512 512" role="img" aria-label="DELPHI">
  <defs>
    <linearGradient id="bg" x1="0" y1="0" x2="0" y2="1">
      <stop offset="0%" stop-color="#0a1020"/>
      <stop offset="100%" stop-color="#05070b"/>
    </linearGradient>
    <linearGradient id="gold" x1="0" y1="0" x2="0" y2="1">
      <stop offset="0%" stop-color="#f5d78e"/>
      <stop offset="100%" stop-color="#c9a227"/>
    </linearGradient>
  </defs>
  <rect width="512" height="512" rx="112" fill="url(#bg)"/>
  <g transform="translate(256 240)" stroke="url(#gold)" fill="none">
    <path d="M-90 -50 L-30 -70 L0 -80 L30 -70 L90 -50" stroke-width="2" opacity="0.7"/>
    <path d="M-60 -20 L0 -40 L60 -20" stroke-width="2" opacity="0.7"/>
    <path d="M-40 10 L0 -10 L40 10" stroke-width="2" opacity="0.7"/>
    <path d="M-40 50 Q0 20 40 50 Q0 90 -40 50" stroke-width="4"/>
    <circle cx="0" cy="52" r="14" stroke-width="3"/>
    <line x1="0" y1="-80" x2="0" y2="100" stroke-width="4" stroke-linecap="round"/>
    <circle cx="0" cy="-88" r="8" fill="url(#gold)" stroke="none"/>
    <path d="M35 55 A22 22 0 1 1 35 95 A16 16 0 1 0 35 55" fill="url(#gold)" stroke="none"/>
  </g>
  <text x="256" y="430" text-anchor="middle" fill="url(#gold)" font-family="system-ui,sans-serif" font-size="52" font-weight="600" letter-spacing="12">DELPHI</text>
</svg>
